<svg xmlns="http://www.w3.org/2000/svg" viewBox="0 0 2010 2010" width="2010" height="2010">
  <style>
    .rat { fill: #111111; }
    @media (prefers-color-scheme: dark) { .rat { fill: #ffffff; } }
  </style>
  <g class="rat" transform="translate(0.000000,2010.000000) scale(0.100000,-0.100000)" stroke="none">
<path d="M13780 17040 c-88 -25 -131 -71 -160 -171 -74 -253 -155 -460 -229
-587 -87 -150 -206 -288 -279 -326 l-30 -15 -7 45 c-11 73 -67 126 -200 190
-104 50 -207 84 -254 84 -12 0 -21 4 -21 9 0 15 -82 101 -110 116 -57 30 -163
38 -248 20 -133 -29 -198 -44 -214 -50 -12 -5 -17 4 -22 36 -10 60 -28 90 -91
147 -105 96 -178 94 -400 -10 -198 -93 -321 -143 -464 -188 -72 -22 -133 -45
-136 -50 -10 -16 -35 -12 -35 5 0 9 -19 36 -41 60 -99 108 -265 94 -319 -27
l-16 -37 -53 25 c-29 13 -78 31 -110 40 -155 46 -361 -85 -414 -262 -8 -27
-35 -94 -60 -149 -79 -174 -81 -226 -11 -312 91 -111 240 -118 353 -17 58 53
81 91 106 182 10 34 21 65 26 68 4 2 54 -9 111 -26 181 -55 243 -44 349 59 38
38 69 76 69 85 0 24 7 21 66 -33 92 -82 213 -129 298 -117 37 6 53 17 114 81
85 89 144 121 249 136 43 6 114 18 158 26 119 23 118 24 128 -21 13 -54 80
-121 137 -137 25 -7 78 -12 119 -11 l74 2 58 -64 c75 -82 110 -92 373 -109
107 -7 198 -16 201 -18 2 -3 0 -21 -5 -40 -17 -57 -12 -171 10 -242 16 -51 30
-73 68 -109 60 -56 101 -66 180 -43 73 22 210 154 230 221 9 30 23 49 50 66
20 14 76 60 124 102 71 63 88 73 92 58 3 -9 17 -137 31 -282 27 -296 49 -402
115 -557 60 -141 95 -201 153 -261 62 -63 104 -78 171 -61 94 24 122 93 95
236 -62 317 -95 1172 -55 1416 11 64 23 117 27 117 4 0 27 -37 52 -82 42 -77
169 -272 270 -414 28 -38 57 -99 82 -170 21 -60 74 -197 117 -304 l80 -195 -4
-320 -3 -320 -32 -65 c-61 -123 -207 -287 -338 -378 -211 -147 -386 -280 -447
-340 -72 -70 -95 -123 -86 -197 4 -34 4 -35 -20 -19 -13 9 -55 40 -93 69 -168
130 -297 140 -405 31 -65 -65 -85 -122 -91 -271 -13 -285 90 -493 290 -589
220 -106 311 -82 487 129 49 59 73 96 81 130 16 62 6 205 -18 277 l-19 56 35
7 c61 12 204 91 286 160 44 37 115 92 157 122 163 115 404 355 519 516 49 71
131 262 156 367 8 34 13 124 13 235 1 169 2 178 16 145 19 -45 108 -136 156
-161 82 -42 146 -49 366 -38 219 11 232 10 232 -20 0 -51 43 -155 82 -197 45
-49 87 -65 183 -69 33 -1 87 -12 120 -25 58 -21 65 -22 197 -10 191 16 182 25
193 -182 6 -124 32 -232 74 -322 69 -144 251 -355 317 -369 16 -3 50 -19 75
-35 l46 -30 6 -88 c9 -158 46 -222 138 -244 146 -35 294 85 344 279 37 143
-38 277 -225 398 -171 113 -247 187 -319 314 l-31 56 0 180 c0 243 -8 281 -74
339 -28 25 -93 66 -145 92 l-94 47 -186 6 c-102 4 -187 7 -188 8 -2 1 -3 13
-3 29 0 69 -28 136 -75 179 -83 76 -167 96 -485 113 -247 13 -311 20 -315 34
-1 6 -8 38 -15 70 -15 73 -71 138 -170 197 -101 59 -150 61 -277 11 l-52 -21
-60 122 c-53 108 -61 131 -67 202 -10 127 -19 152 -87 226 -73 79 -149 199
-297 471 -25 45 -70 114 -101 153 -78 98 -324 336 -381 369 -98 57 -203 69
-318 36z"/>
<path d="M7157 16436 c-73 -27 -124 -70 -333 -282 -194 -195 -215 -221 -257
-301 -121 -236 -205 -586 -214 -896 -8 -243 15 -367 102 -567 32 -74 99 -281
148 -455 14 -50 47 -140 73 -200 25 -61 63 -155 84 -211 21 -56 50 -120 64
-143 59 -92 256 -278 353 -331 l42 -23 -39 -43 c-56 -61 -87 -130 -126 -280
-19 -73 -52 -175 -74 -227 -77 -185 -86 -276 -36 -361 l24 -41 -39 -65 c-53
-88 -62 -127 -56 -245 12 -238 75 -351 204 -371 108 -16 222 54 261 160 36 96
54 190 44 227 -7 29 -3 45 24 103 53 110 69 199 50 273 -22 83 -20 98 13 157
54 93 77 246 51 335 -8 30 -6 39 20 74 77 105 150 100 341 -24 47 -31 123 -75
169 -100 46 -24 114 -67 150 -96 78 -63 121 -84 219 -108 145 -35 260 -15 335
58 118 114 35 283 -175 352 -45 15 -107 46 -140 69 -182 128 -244 169 -334
221 -55 31 -113 70 -130 85 -41 40 -94 60 -182 70 -46 5 -92 17 -121 33 -26
13 -99 52 -163 86 -265 139 -354 282 -514 831 -20 69 -71 208 -112 309 l-76
184 10 267 11 266 36 110 c89 261 228 470 399 599 48 35 51 34 182 -80 55 -48
145 -114 200 -146 55 -33 140 -96 189 -140 49 -44 114 -93 145 -110 82 -44 96
-58 156 -158 51 -85 90 -137 247 -335 35 -43 84 -108 110 -143 25 -36 64 -84
86 -107 22 -22 64 -79 95 -126 73 -113 216 -251 300 -291 156 -73 276 -34 313
102 26 99 -13 191 -127 293 -44 40 -169 180 -169 190 0 2 20 -2 44 -9 59 -18
106 -5 158 43 43 41 61 93 73 208 4 35 10 64 12 64 3 0 32 -7 66 -16 133 -34
280 53 361 215 15 30 42 75 60 100 65 88 65 154 0 242 -106 145 -243 162 -362
47 -30 -29 -63 -66 -73 -83 -14 -23 -30 -32 -71 -41 -29 -6 -74 -17 -100 -24
-46 -13 -48 -13 -97 18 -102 63 -168 53 -253 -36 -85 -89 -87 -103 -33 -296
24 -89 51 -181 59 -206 l16 -45 -30 35 c-17 19 -64 85 -104 145 -41 61 -107
153 -148 206 -41 53 -99 138 -128 189 -67 113 -135 178 -213 205 -58 19 -95
46 -216 152 -39 35 -97 76 -129 92 -31 16 -97 61 -146 100 -264 214 -453 294
-579 247z"/>
<path d="M7655 15329 c-17 -4 -50 -29 -75 -54 -44 -44 -45 -48 -45 -108 0 -56
5 -70 43 -134 47 -80 108 -230 188 -468 44 -129 60 -193 80 -330 14 -93 33
-201 41 -240 11 -46 17 -122 18 -220 0 -82 4 -167 9 -187 15 -70 112 -134 182
-120 61 11 145 125 178 243 8 29 25 81 36 114 32 89 16 350 -30 488 -17 50
-42 134 -55 185 -58 220 -168 474 -257 593 -66 87 -219 239 -241 239 -8 0 -21
2 -29 4 -7 2 -27 0 -43 -5z"/>
<path d="M10302 13490 c-194 -51 -367 -176 -393 -283 -14 -61 -24 -83 -73
-155 -44 -66 -115 -281 -123 -373 -13 -154 73 -298 199 -334 122 -34 341 -5
428 57 25 17 72 50 105 72 81 54 201 179 209 218 11 54 7 578 -5 646 -26 147
-152 203 -347 152z"/>
<path d="M17664 13169 c-50 -14 -120 -97 -140 -164 -33 -115 -13 -160 132
-292 87 -80 112 -116 145 -211 10 -29 37 -75 59 -102 l41 -48 -7 -84 c-3 -46
-15 -112 -25 -147 -56 -186 6 -360 218 -614 129 -155 122 -136 133 -353 10
-202 21 -260 71 -371 17 -37 42 -106 55 -153 14 -47 30 -99 36 -116 8 -24 6
-48 -12 -125 -30 -127 -38 -335 -16 -437 16 -75 68 -164 131 -222 24 -22 55
-70 55 -84 0 -3 -45 -37 -100 -76 -130 -92 -171 -143 -200 -252 -53 -195 -59
-277 -30 -387 28 -104 27 -107 -28 -135 -26 -13 -68 -46 -93 -73 -47 -50 -45
-45 -79 -225 -15 -78 -78 -201 -139 -272 -71 -83 -79 -152 -29 -250 22 -43 21
-63 -7 -191 -33 -150 9 -248 121 -281 28 -8 57 -12 65 -10 8 3 34 10 58 16 53
14 145 96 160 144 25 76 31 140 20 227 l-10 88 31 46 c17 24 62 109 100 187
77 160 130 247 193 316 23 26 49 56 57 66 12 15 16 74 20 301 4 254 7 285 23
303 10 11 70 48 134 83 202 112 241 166 231 323 -6 93 -33 152 -131 289 -92
130 -137 214 -137 256 0 16 9 67 20 113 21 89 26 208 10 273 -6 22 -14 78 -19
125 -5 47 -26 136 -45 198 -40 128 -49 175 -71 387 -28 276 -36 295 -184 463
-141 162 -164 238 -126 412 8 36 15 92 15 125 0 33 5 79 10 103 21 89 -17 169
-148 314 -44 48 -73 89 -77 110 -13 57 -41 100 -135 206 -163 183 -249 232
-356 201z"/>
<path d="M13815 12319 c-86 -25 -127 -127 -99 -250 21 -93 29 -110 103 -198
93 -111 126 -173 156 -291 15 -58 42 -146 61 -196 31 -85 34 -101 34 -205 0
-62 5 -138 12 -169 15 -75 6 -103 -50 -155 -26 -25 -68 -64 -93 -87 -84 -78
-91 -184 -17 -264 22 -24 48 -46 59 -49 28 -9 23 -23 -11 -30 -17 -4 -58 -32
-90 -62 -96 -89 -103 -160 -21 -236 26 -24 52 -46 59 -48 8 -3 -9 -56 -51
-164 -80 -202 -102 -280 -93 -337 13 -83 98 -137 192 -123 76 11 169 132 204
266 11 45 116 287 130 302 11 12 130 -93 230 -204 139 -152 172 -195 305 -390
17 -25 44 -81 59 -125 15 -43 44 -108 63 -142 l35 -64 -11 -136 c-5 -76 -17
-157 -26 -182 -39 -111 -146 -224 -331 -349 -137 -93 -191 -144 -205 -193 -32
-121 83 -217 225 -188 102 20 160 58 329 214 224 206 313 330 363 507 27 92
27 96 16 214 -14 147 -44 252 -116 412 -31 67 -56 127 -56 132 0 20 -199 309
-232 337 -19 16 -66 72 -105 124 -87 119 -176 201 -320 297 l-113 74 0 55 c0
48 2 55 18 51 9 -3 42 -11 72 -17 113 -26 346 -135 470 -222 36 -25 133 -83
215 -128 373 -204 449 -289 479 -535 19 -150 43 -415 51 -560 24 -436 34 -507
81 -556 59 -61 137 -56 210 14 39 37 45 49 54 107 18 118 4 777 -21 964 -25
186 -87 360 -173 479 -72 101 -246 264 -313 293 -108 46 -148 69 -223 126 -42
31 -101 68 -132 81 -31 14 -83 43 -115 65 -131 89 -380 201 -527 237 -55 14
-107 32 -115 39 -10 11 -16 70 -22 248 -9 245 -19 327 -49 418 -10 30 -27 90
-39 133 -28 102 -66 176 -165 322 -46 66 -99 147 -119 181 -39 64 -136 164
-161 164 -8 0 -20 2 -28 4 -7 2 -27 0 -43 -5z"/>
<path d="M6888 11231 c-70 -22 -137 -98 -164 -185 -9 -28 -19 -105 -23 -171
l-7 -120 -41 -40 c-56 -56 -71 -122 -50 -223 14 -70 14 -75 -10 -155 -22 -74
-23 -88 -12 -144 11 -62 11 -63 -21 -113 -62 -97 -85 -220 -56 -302 7 -20 48
-84 91 -143 44 -61 74 -110 69 -115 -5 -5 -70 -14 -144 -20 -128 -9 -292 -27
-620 -67 -80 -10 -179 -17 -220 -16 -41 1 -115 3 -165 4 -49 1 -119 -2 -155
-7 -36 -5 -83 -6 -105 -2 -61 11 -1341 9 -1590 -2 -121 -6 -274 -19 -340 -30
-66 -10 -205 -26 -309 -35 -104 -9 -221 -25 -260 -36 -39 -10 -95 -25 -123
-33 -100 -28 -535 -57 -675 -46 -66 6 -90 14 -199 69 -147 75 -158 84 -198
166 -58 117 -44 148 107 238 168 100 237 117 557 137 284 19 368 43 448 129
80 85 108 173 86 263 -10 44 -23 64 -74 114 -77 78 -102 86 -292 91 -150 5
-156 4 -300 -32 -197 -49 -295 -81 -373 -120 -36 -18 -117 -53 -181 -79 -212
-84 -390 -201 -578 -381 -119 -115 -132 -133 -164 -247 -73 -253 -70 -357 16
-486 58 -87 204 -237 300 -310 67 -50 313 -177 392 -202 22 -7 85 -33 140 -57
139 -62 237 -88 437 -118 249 -38 332 -53 428 -81 103 -30 222 -49 395 -64 72
-6 184 -18 250 -26 114 -14 125 -14 210 5 92 20 191 33 395 51 63 5 147 19
185 31 39 11 88 24 111 29 66 14 383 29 454 20 50 -5 83 -3 139 11 84 21 142
24 223 9 38 -7 70 -7 101 -1 25 6 107 15 183 21 104 8 154 17 208 37 55 20
101 28 201 34 201 13 389 38 510 66 104 25 125 27 380 27 l270 1 6 -105 c7
-127 25 -176 86 -229 86 -77 181 -76 260 1 37 37 48 58 79 151 72 226 81 391
29 542 -38 110 -43 164 -20 240 27 89 -3 151 -144 297 l-55 58 22 27 c54 67
66 135 49 273 l-9 65 60 89 c111 163 107 233 -20 359 l-79 79 45 48 c90 96
140 193 171 333 28 128 -3 240 -96 342 -70 75 -152 107 -221 86z m-204 -2176
c-5 -11 -22 -15 -73 -14 l-66 1 65 13 c36 7 68 13 72 14 4 0 5 -6 2 -14z
m-181 -22 c-18 -2 -48 -2 -65 0 -18 2 -4 4 32 4 36 0 50 -2 33 -4z m-588 -53
c-16 -4 -43 -8 -60 -8 -29 1 -29 1 5 8 19 4 46 7 60 8 22 0 22 -1 -5 -8z
m-358 -31 c-37 -4 -114 -21 -170 -38 -177 -52 -323 -66 -767 -76 -352 -8 -598
-22 -680 -40 -36 -8 -94 -21 -130 -30 -36 -8 -132 -22 -215 -30 -82 -9 -191
-25 -241 -35 -82 -17 -98 -17 -182 -5 -51 8 -176 19 -280 25 -199 12 -226 17
-299 58 l-47 26 70 12 c38 6 105 21 149 33 48 12 159 26 275 36 256 20 293 24
370 42 36 8 130 19 210 23 198 9 2022 9 1937 -1z"/>
<path d="M12489 10892 c-146 -39 -201 -120 -250 -375 -47 -242 -20 -297 259
-534 67 -58 122 -107 122 -109 0 -3 -9 -23 -20 -44 -11 -22 -31 -80 -44 -129
-13 -49 -32 -105 -41 -126 -33 -69 -36 -69 -360 -76 -342 -6 -365 -10 -429
-79 -70 -75 -80 -155 -31 -249 48 -92 108 -108 464 -123 312 -13 384 -7 507
42 74 30 78 30 262 30 103 1 244 5 315 9 143 9 136 6 218 104 88 104 97 203
29 310 -70 111 -143 126 -292 64 -82 -35 -188 -51 -188 -29 0 4 11 53 24 108
22 95 26 104 67 141 96 88 108 95 158 98 26 2 63 11 82 20 46 23 270 251 303
308 64 109 91 314 57 428 -25 82 -149 185 -260 215 -117 33 -278 -14 -416
-120 -18 -14 -110 19 -190 69 -112 69 -210 82 -346 47z"/>
<path d="M10805 10683 c-16 -2 -109 -20 -205 -39 -96 -19 -207 -39 -246 -44
-40 -5 -110 -23 -157 -39 -47 -16 -121 -37 -165 -46 -102 -20 -347 -104 -404
-138 -78 -46 -233 -184 -397 -354 -169 -174 -189 -201 -435 -583 -124 -193
-132 -244 -51 -319 52 -48 100 -63 153 -49 51 13 219 182 257 258 41 82 96
156 280 376 235 281 310 345 455 392 52 17 147 49 210 72 63 23 153 48 200 55
47 7 121 22 165 33 125 33 233 42 460 41 241 -1 291 -8 203 -27 -182 -41 -460
-241 -628 -452 -44 -56 -88 -99 -117 -116 -115 -67 -268 -252 -350 -424 -30
-63 -80 -152 -110 -198 -67 -101 -132 -256 -162 -388 -12 -55 -35 -154 -52
-221 -55 -230 -32 -417 78 -637 47 -93 68 -122 151 -208 127 -131 197 -181
292 -207 166 -46 441 -14 760 88 144 46 207 122 181 219 -32 116 -164 149
-343 88 -142 -49 -452 -74 -535 -43 -61 23 -196 211 -228 317 -20 68 -32 301
-17 350 89 309 106 347 238 546 40 61 85 135 98 165 75 167 420 526 641 669
33 21 74 50 90 64 20 15 54 28 95 36 36 6 106 22 155 36 50 13 109 29 133 35
128 31 171 175 77 258 -19 16 -30 33 -25 36 5 3 14 23 20 45 18 67 -2 120 -70
185 -87 82 -154 106 -358 125 -57 5 -133 19 -169 30 -62 19 -101 22 -168 13z"/>
<path d="M13055 9083 c-11 -3 -54 -25 -95 -49 -49 -29 -106 -52 -159 -64 -45
-11 -96 -27 -112 -36 -17 -8 -88 -36 -157 -62 l-127 -46 -195 -3 c-257 -5
-394 23 -535 109 l-70 43 -252 0 -253 0 -62 -62 c-58 -58 -61 -64 -61 -109 0
-44 3 -50 64 -109 78 -76 106 -86 333 -115 87 -11 217 -34 290 -50 456 -102
894 -88 1217 37 104 41 174 90 288 202 129 127 137 172 48 259 -53 52 -104 69
-162 55z"/>
<path d="M6998 8118 c-24 -6 -54 -28 -87 -63 -54 -57 -60 -73 -121 -322 -38
-156 -35 -186 31 -298 45 -78 48 -110 24 -286 -34 -260 -29 -454 16 -547 12
-23 53 -77 93 -120 101 -108 106 -117 106 -187 0 -68 12 -158 30 -225 9 -36
27 -60 94 -125 96 -92 106 -108 135 -225 12 -47 33 -108 47 -137 l25 -52 -25
-80 c-39 -122 -72 -261 -101 -416 -31 -169 -34 -179 -97 -378 -43 -136 -55
-163 -87 -194 -56 -55 -294 -209 -418 -270 -101 -50 -122 -65 -196 -142 -211
-220 -241 -339 -136 -551 46 -94 62 -116 153 -205 106 -106 203 -177 264 -195
20 -6 82 -15 137 -21 55 -5 120 -13 145 -19 60 -12 274 -13 339 0 29 5 200 15
379 20 221 7 367 17 452 30 69 10 186 26 260 35 160 19 284 46 343 76 23 12
79 58 125 102 180 176 203 275 132 551 -33 130 -40 283 -20 456 30 259 31 285
15 425 -20 186 -21 185 24 251 l40 59 118 0 c139 0 148 5 252 129 l62 74 97
-5 c176 -10 266 39 298 162 37 139 -25 223 -193 264 -268 65 -390 37 -551
-126 -55 -55 -104 -94 -145 -114 -66 -34 -253 -209 -392 -366 -94 -107 -102
-139 -109 -423 l-4 -205 29 -90 c72 -220 92 -580 37 -699 -25 -55 -132 -77
-530 -106 -155 -11 -308 -28 -368 -40 -100 -21 -104 -21 -225 -4 -114 16 -130
16 -212 1 -79 -14 -94 -14 -153 -1 -81 19 -115 13 -216 -38 l-82 -41 -50 37
c-142 104 -147 169 -18 261 35 25 97 60 137 79 41 18 113 55 160 82 54 32 113
56 160 67 138 33 192 112 172 253 l-10 64 109 108 c60 59 118 121 128 137 28
46 49 141 60 272 6 81 16 134 30 166 32 72 40 183 30 419 l-9 213 74 75 c89
92 104 132 86 225 -21 107 -157 263 -292 335 -107 57 -109 60 -109 197 0 182
-11 212 -112 306 l-83 78 0 177 c0 135 4 194 18 251 20 82 14 134 -39 343 -18
73 -22 103 -14 123 23 60 31 158 19 230 -10 63 -16 75 -58 116 -65 66 -142 89
-223 67z"/>
<path d="M17861 7333 c-13 -3 -47 -28 -76 -56 -54 -53 -75 -98 -75 -162 0 -75
91 -324 184 -500 29 -55 72 -147 95 -205 70 -169 99 -211 184 -264 16 -10 37
-39 51 -69 46 -104 104 -137 362 -202 161 -41 286 -81 323 -104 12 -8 9 -28
-17 -128 -24 -94 -52 -236 -52 -267 0 -44 -394 -83 -525 -52 -38 10 -112 23
-163 31 -126 19 -349 98 -552 196 -177 86 -195 98 -240 169 -29 45 -30 50 -30
171 -1 274 -17 478 -45 574 -68 232 -141 303 -290 281 -36 -6 -57 -18 -105
-63 -108 -100 -109 -167 -6 -392 l54 -118 -34 -188 c-39 -219 -41 -242 -15
-324 49 -158 193 -327 341 -401 47 -23 107 -58 133 -77 26 -20 82 -48 125 -63
42 -15 104 -39 137 -52 246 -102 325 -123 615 -169 117 -19 503 -15 595 5 225
50 288 87 375 221 50 77 64 128 85 303 8 73 26 171 40 218 29 101 31 141 9
215 -22 76 -46 112 -138 207 -95 99 -121 113 -336 187 -196 68 -203 71 -260
130 -33 33 -59 50 -98 61 -51 15 -54 18 -81 79 -16 34 -45 91 -66 126 -20 35
-70 134 -109 220 -164 352 -277 485 -395 462z"/>
<path d="M16424 6635 c-219 -47 -275 -197 -132 -351 82 -87 106 -93 241 -60
135 33 149 39 201 86 81 74 82 176 4 265 -63 71 -169 92 -314 60z"/>
<path d="M15834 6376 c-86 -21 -145 -68 -212 -166 -29 -45 -32 -46 -105 -58
-104 -18 -169 -53 -252 -137 -70 -71 -123 -154 -145 -231 l-12 -40 -162 -12
c-88 -7 -177 -17 -196 -22 -19 -6 -89 -19 -156 -29 -173 -27 -194 -35 -241
-83 -113 -117 -66 -297 89 -343 54 -15 65 -15 210 5 84 11 232 27 328 35 96 8
198 21 225 29 64 19 122 77 155 155 41 95 220 238 330 264 14 4 52 34 84 67
71 74 133 107 238 127 117 22 158 39 205 85 53 52 72 118 53 188 -15 59 -91
134 -151 150 -115 31 -202 36 -285 16z"/>
<path d="M12729 5577 c-49 -19 -85 -45 -145 -108 -81 -86 -100 -124 -149 -293
-58 -202 -64 -212 -192 -351 -195 -211 -241 -266 -251 -307 -26 -100 54 -195
193 -227 106 -25 171 18 402 268 123 133 138 154 190 260 50 101 57 123 55
171 -1 45 4 62 27 95 43 62 118 206 130 249 39 145 -122 294 -260 243z"/>
<path d="M10299 5524 c-64 -19 -132 -93 -148 -161 -26 -106 6 -154 213 -320
151 -120 178 -131 343 -140 183 -10 256 24 288 131 30 101 14 176 -52 247 -51
55 -87 69 -176 69 -69 0 -73 2 -191 91 -123 94 -183 112 -277 83z"/>
<path d="M14062 5435 c-105 -33 -156 -100 -218 -288 -25 -78 -59 -167 -74
-197 -15 -30 -43 -98 -64 -150 -27 -71 -57 -123 -120 -210 -121 -164 -126
-203 -43 -317 24 -32 66 -92 94 -133 69 -103 111 -138 251 -209 175 -89 188
-125 67 -170 -119 -45 -275 -54 -978 -58 l-657 -5 -65 38 -64 37 2 130 2 129
-44 39 c-106 95 -239 69 -328 -65 -43 -63 -64 -133 -70 -233 -13 -204 70 -308
370 -465 l102 -53 435 -3 c715 -5 1118 17 1326 73 51 14 106 25 123 25 80 0
122 21 205 101 100 96 140 161 168 272 l21 87 -21 87 c-26 105 -66 175 -152
265 -57 61 -80 76 -190 128 -157 74 -158 75 -75 220 31 55 69 139 85 187 15
49 44 122 64 163 21 44 47 124 62 190 25 112 25 116 9 176 -48 177 -118 243
-223 209z"/>
<path d="M12016 5336 c-21 -8 -63 -38 -91 -66 l-53 -52 -139 7 c-115 6 -150 4
-195 -9 -169 -49 -181 -286 -18 -371 92 -48 383 -67 503 -33 64 18 149 78 202
142 70 85 71 252 3 323 -58 60 -143 84 -212 59z"/>
  </g>
</svg>
